<svg class="icon icon-fb" width="30" height="30" viewBox="0 0 30 30" fill="none" xmlns="http://www.w3.org/2000/svg">
<g clip-path="url(#clip0_197_2)">
<path d="M14.9986 2.18838C22.0616 2.18838 27.8089 7.93563 27.8089 14.9986C27.8089 22.0616 22.0616 27.8089 14.9986 27.8089C7.93563 27.8089 2.18838 22.0644 2.18838 14.9986C2.18838 7.93289 7.93563 2.18838 14.9986 2.18838ZM14.9986 0C6.7156 0 0 6.7156 0 14.9986C0 23.2817 6.7156 29.9973 14.9986 29.9973C23.2817 29.9973 29.9973 23.2817 29.9973 14.9986C29.9973 6.7156 23.2844 0 14.9986 0Z" fill="white"/>
<path d="M18.8009 15.0041H16.3144V23.8698H12.6297V15.0041H10.8762V11.8719H12.6297V9.84496C12.6297 8.39515 13.319 6.12744 16.3472 6.12744L19.0772 6.13838V9.1775H17.0967C16.7712 9.1775 16.3144 9.33889 16.3144 10.031V11.8747H19.121L18.7982 15.0041H18.8009Z" fill="white"/>
</g>
<defs>
<clipPath id="clip0_197_2">
<rect width="30" height="30" fill="white"/>
</clipPath>
</defs>
</svg>
